<?xml version="1.0" encoding="utf-8"?>
<!-- Generator: Adobe Illustrator 22.1.0, SVG Export Plug-In . SVG Version: 6.00 Build 0)  -->
<svg version="1.1" id="Layer_1" xmlns="http://www.w3.org/2000/svg" xmlns:xlink="http://www.w3.org/1999/xlink" x="0px" y="0px"
	 viewBox="0 0 110.1 104.1" style="enable-background:new 0 0 110.1 104.1;" xml:space="preserve">
<style type="text/css">
	.st0{opacity:0.72;fill:#A4EEFF;}
	.st1{fill:none;stroke:#13BF99;stroke-width:3;stroke-linecap:round;stroke-miterlimit:10;}
	.st2{fill:none;stroke:#13BF99;stroke-width:3;stroke-linecap:round;stroke-linejoin:round;stroke-miterlimit:10;}
	.st3{fill:none;stroke:#13BF99;stroke-width:4;stroke-linecap:round;stroke-miterlimit:10;}
	.st4{fill:none;stroke:#13BF99;stroke-width:4;stroke-linecap:round;stroke-linejoin:round;stroke-miterlimit:10;}
	.st5{fill:none;stroke:#39C5FF;stroke-width:4;stroke-linecap:round;stroke-miterlimit:10;}
	.st6{fill:none;stroke:#39C5FF;stroke-width:4;stroke-linecap:round;stroke-linejoin:round;stroke-miterlimit:10;}
	.st7{fill:none;stroke:#39C5FF;stroke-width:5;stroke-linecap:round;stroke-linejoin:round;stroke-miterlimit:10;}
	.st8{fill:none;stroke:#39C5FF;stroke-width:4;stroke-linejoin:round;stroke-miterlimit:10;}
	.st9{fill:#39C5FF;}
	.st10{fill:#B2B2B2;}
	.st11{fill-rule:evenodd;clip-rule:evenodd;fill:#B2B2B2;}
	.st12{fill:#13BF99;}
	.st13{fill:#0AB3E8;}
	.st14{fill:none;stroke:#13BF99;stroke-width:2.5541;stroke-linecap:round;stroke-miterlimit:10;}
	.st15{fill:none;stroke:#13BF99;stroke-width:2.5541;stroke-linecap:round;stroke-linejoin:round;stroke-miterlimit:10;}
</style>
<path class="st12" d="M23.6,54c0,0,0,0.1,0,0.1L23.6,54z M33.6,38.4c0,0-0.1,0.1-0.1,0.1C33.6,38.5,33.6,38.4,33.6,38.4z M77.6,29.5
	c-0.1,0.2-0.1,0.4-0.2,0.6l0,0c-0.1,0.3-0.3,0.6-0.5,0.9c-0.2,0.2-0.4,0.5-0.7,0.7c-0.3,0.2-0.7,0.4-1,0.6c-0.6,0.2-1.3,0.4-1.9,0.5
	c-0.6,0.1-1.3,0.1-1.9,0.1c-0.8,0-1.6,0-2.4-0.1c-1.8-0.3-3.5-0.8-5.2-1.4c-0.9-0.3-1.9-0.6-2.8-0.8c-1-0.2-1.9-0.4-2.9-0.5h0
	c-2-0.3-4.1-0.4-6.1-0.5c-1.4-0.1-2.7,0-4.1,0.1c-2.6,0.3-5.1,1-7.5,2c-2.5,1.1-4.9,2.4-7.1,4c-2.2,1.6-4.2,3.4-6,5.5
	c-0.9,1-1.7,2.1-2.4,3.3c-0.7,1.1-1.3,2.3-1.8,3.5c-0.5,1.1-0.8,2.3-1.1,3.5c-0.2,1.2-0.3,2.5-0.2,3.8c0.2,2.6,1,5,2.5,7.2
	c0.5,0.8,1.1,1.5,1.7,2.2l0,0c-0.4-0.7-0.7-1.4-1-2.1l0,0h0c-0.6-1.4-1-2.9-1.2-4.4c-0.2-1.4-0.2-2.8,0-4.2c0.2-1.7,0.7-3.4,1.4-5
	c0.8-1.8,1.8-3.5,3-5c1.6-2,3.4-3.9,5.5-5.5c2.3-1.8,4.8-3.2,7.4-4.3c2.1-0.9,4.4-1.5,6.7-1.9c0.5-0.1,1.1-0.1,1.6-0.1
	c0.7,0,1.4,0,2.1,0h0c1.9,0,3.9,0.2,5.8,0.4c0.9,0.1,1.9,0.3,2.8,0.5c1,0.2,1.9,0.5,2.8,0.8c0.9,0.3,1.8,0.6,2.7,0.8h0
	c1,0.2,1.9,0.4,2.9,0.5c0.9,0,1.8,0,2.7-0.1c0.6-0.1,1.2-0.2,1.8-0.4c1.3-0.3,2.4-0.9,3.4-1.8c0.4-0.4,0.8-0.9,1-1.5
	C77.5,30.8,77.6,30.2,77.6,29.5L77.6,29.5L77.6,29.5L77.6,29.5z"/>
<path class="st12" d="M53.9,48.5L53.9,48.5L53.9,48.5z M61.9,32.8c0,0.1,0,0.2,0,0.3l0,0c0.1,0.8,0.1,1.6,0,2.4
	c-0.1,0.7-0.3,1.4-0.6,2c-0.4,0.9-0.9,1.8-1.6,2.6c-0.9,1.1-1.9,2.2-2.9,3.3c-0.5,0.5-0.9,1-1.4,1.5c-0.5,0.5-1,0.9-1.4,1.4
	c-0.7,0.7-1.3,1.5-1.8,2.4c-0.5,0.9-0.6,1.9-0.5,2.9h0c0.1-0.3,0.2-0.6,0.3-0.9c0.2-0.4,0.4-0.7,0.6-1.1c0.4-0.5,0.8-0.9,1.3-1.2
	c0.9-0.7,1.8-1.2,2.8-1.8v0c0.6-0.4,1.1-0.8,1.6-1.2c0.6-0.5,1.2-1.1,1.7-1.7c-0.1,0.1-0.1,0.2-0.2,0.2h0c0.6-0.6,1.1-1.3,1.6-2
	c0.4-0.7,0.8-1.4,1.1-2.1c0.6-1.4,0.7-2.9,0.5-4.4C62.7,34.5,62.4,33.6,61.9,32.8L61.9,32.8L61.9,32.8L61.9,32.8z"/>
<path class="st12" d="M54.6,34.2L54.6,34.2L54.6,34.2L54.6,34.2L54.6,34.2z M24.8,59.1L24.8,59.1L24.8,59.1L24.8,59.1z M24.7,53.3
	L24.7,53.3L24.7,53.3z M55.3,31.9c-0.2,0.8-0.4,1.5-0.7,2.2l0,0l0,0l0,0.1l0,0l0,0c-0.3,0.8-0.8,1.6-1.3,2.2
	c-0.4,0.6-0.9,1.1-1.5,1.5c-0.7,0.5-1.5,0.9-2.3,1.3c-0.9,0.4-1.9,0.7-2.8,0.9c-1.1,0.3-2.2,0.5-3.3,0.6c-0.2,0-0.5,0.1-0.7,0.1
	c-2.2,0.3-4.5,0.5-6.7,0.8c-1.2,0.2-2.3,0.3-3.5,0.6l0,0c-1.1,0.3-2.2,0.6-3.2,1.1c-1.4,0.6-2.6,1.5-3.7,2.6c-0.5,0.5-1,1.1-1.4,1.7
	c-0.4,0.6-0.7,1.3-1,2c-0.5,1.3-0.7,2.6-0.7,4c0,1.4,0.2,2.8,0.6,4.1c0.6,1.9,1.5,3.7,2.6,5.2l0,0v0c-0.4-1.2-0.7-2.5-0.9-3.8l0,0
	l0-0.2l0,0.1h0c-0.2-1.8-0.3-3.7-0.1-5.5c0.2-1.1,0.4-2.2,0.9-3.2c0.3-0.8,0.8-1.5,1.3-2.2c0.4-0.6,1-1.1,1.5-1.5
	c0.7-0.5,1.5-1,2.3-1.3c1.6-0.6,3.2-1,4.9-1.2c2.2-0.3,4.5-0.4,6.7-0.7c1.2-0.1,2.5-0.3,3.7-0.6c1.2-0.2,2.3-0.6,3.4-1.1
	c2-0.8,3.7-2.3,4.8-4.1C55.1,35.9,55.5,33.9,55.3,31.9L55.3,31.9L55.3,31.9z"/>
<path class="st12" d="M29.4,43.3L29.4,43.3L29.4,43.3z M54,31.8c-2.2,1-4.3,2.2-6.5,3.2h0c-0.8,0.3-1.6,0.6-2.5,0.9
	c-0.9,0.2-1.8,0.4-2.7,0.6c-1.9,0.2-3.8,0.5-5.6,0.8c-1.5,0.4-2.9,1-4.2,1.8c-2.5,1.5-4.5,3.8-5.6,6.6c-0.1,0.3-0.2,0.7-0.3,1h0l0,0
	c0.2-0.4,0.5-0.8,0.8-1.1l0,0c0.6-0.8,1.4-1.6,2.2-2.2c1-0.8,2.1-1.4,3.3-1.9c1.3-0.5,2.6-0.9,3.9-1.2c1.7-0.4,3.5-0.6,5.2-0.9
	c0.9-0.2,1.8-0.4,2.7-0.7c0.9-0.3,1.8-0.8,2.7-1.3c1.5-0.9,2.9-2,4.2-3.2C52.3,33.4,53.1,32.6,54,31.8L54,31.8L54,31.8z"/>
<path class="st12" d="M56.6,33.2L56.6,33.2L56.6,33.2L56.6,33.2z M50.6,46.2L50.6,46.2L50.6,46.2z M56.6,31.8c0,0.5,0,0.9,0,1.4l0,0
	l0,0l0,0l0,0c-0.1,0.5-0.2,0.9-0.4,1.3c-0.2,0.5-0.5,1-0.8,1.4c-1.3,1.6-3,2.8-4.3,4.3c-0.3,0.3-0.6,0.7-0.9,1
	c-0.2,0.3-0.4,0.5-0.6,0.8c-0.1,0.2-0.3,0.5-0.4,0.7c-0.3,0.6-0.5,1.1-0.6,1.8c-0.1,0.6-0.2,1.3-0.1,1.9c0,0.8,0.2,1.5,0.4,2.2
	c0.3,1,0.9,1.8,1.6,2.5c0.8,0.7,1.7,1.2,2.7,1.5l0,0c-0.6-0.5-1.1-1-1.5-1.5c-0.3-0.4-0.5-0.8-0.7-1.2c-0.2-0.4-0.3-0.9-0.4-1.4
	c-0.1-0.7-0.1-1.4,0-2.1c0.1-0.6,0.2-1.1,0.4-1.6c0.4-0.9,0.9-1.7,1.6-2.5c0.6-0.8,1.3-1.5,1.9-2.3c0.7-0.8,1.3-1.7,1.8-2.7
	c0.4-0.8,0.7-1.7,0.8-2.7C57.2,33.6,57,32.7,56.6,31.8L56.6,31.8L56.6,31.8L56.6,31.8z"/>
<path class="st12" d="M52.2,51.7L52.2,51.7L52.2,51.7L52.2,51.7L52.2,51.7z M57.3,37.2L57.3,37.2L57.3,37.2z M58.7,34.8L58.7,34.8
	L58.7,34.8z M59.1,32.3c0.1,0.4,0.1,0.8,0,1.2c-0.1,0.5-0.2,0.9-0.4,1.3c-0.4,0.8-0.8,1.6-1.4,2.3c-1.3,1.7-2.9,3.2-4.2,5
	c-1.3,1.6-2.2,3.6-2.5,5.7c-0.1,0.8,0,1.5,0.3,2.2c0.3,0.8,0.8,1.5,1.4,2l0,0c-0.1-0.1-0.1-0.2-0.2-0.4v0l0,0l0,0v0
	c-0.2-0.4-0.3-0.8-0.4-1.3c0-0.4,0-0.8,0-1.2c0.1-0.5,0.2-0.9,0.4-1.4c0.5-1,1.1-2,1.8-2.9c0.7-0.9,1.4-1.7,2.1-2.6v0
	c0.6-0.8,1.2-1.7,1.8-2.6c0.6-0.9,1-1.9,1.4-2.9c0.3-0.9,0.5-1.8,0.4-2.7C59.6,33.5,59.4,32.8,59.1,32.3L59.1,32.3L59.1,32.3
	L59.1,32.3z"/>
<path class="st12" d="M28.4,55L28.4,55L28.4,55z M37.5,43.1c0,0.1-0.1,0.2-0.1,0.3h0c-0.2,0.4-0.4,0.7-0.6,1c-0.4,0.5-0.9,1-1.4,1.4
	c-1,0.8-2.2,1.4-3.3,2.2c-1.2,0.8-2.3,1.7-3.4,2.7c-1.2,1.1-2.3,2.5-3.1,3.9c-0.4,0.7-0.7,1.5-0.9,2.4c-0.2,0.8-0.3,1.6-0.3,2.4
	c0,1.1,0.3,2.2,0.9,3.2c0.7,0.9,1.6,1.5,2.6,1.9l0,0h0c-0.4-0.3-0.7-0.7-1-1l0,0h0c-0.2-0.3-0.4-0.6-0.6-1c-0.1-0.3-0.2-0.6-0.3-0.9
	c0-0.5,0-0.9,0-1.4c0.1-0.8,0.3-1.5,0.6-2.2c0.4-0.9,1-1.8,1.6-2.7c0.9-1.2,2-2.3,3-3.4c0.5-0.5,0.9-1,1.4-1.5
	c0.5-0.5,0.9-0.9,1.4-1.3c0.9-0.8,1.7-1.7,2.4-2.7C37.1,45.3,37.4,44.2,37.5,43.1L37.5,43.1L37.5,43.1L37.5,43.1z"/>
<path class="st12" d="M30.9,50.6c-0.2,0.3-0.5,0.5-0.7,0.8c-0.2,0.3-0.4,0.6-0.6,0.9c-0.5,0.8-0.8,1.7-1,2.6
	c-0.2,0.9-0.2,1.9-0.1,2.9c0.2,1.2,0.7,2.4,1.5,3.4l0,0c-0.2-0.6-0.3-1.2-0.4-1.8c-0.1-0.7-0.1-1.4,0-2.1c0.1-0.5,0.2-1.1,0.3-1.6
	c0.1-0.6,0.3-1.1,0.4-1.7h0c0.3-0.9,0.6-1.9,1-2.8c0.2-0.4,0.4-0.8,0.6-1.1c0.1-0.1,0.2-0.3,0.4-0.4l0,0v0c0.1,0,0.1-0.1,0.2-0.1v0
	C31.9,49.7,31.3,50.1,30.9,50.6L30.9,50.6z"/>
<path class="st12" d="M37.8,43.1L37.8,43.1L37.8,43.1z M30.4,61L30.4,61L30.4,61z M30.7,59.9L30.7,59.9L30.7,59.9z M37.3,45
	C37.3,45,37.3,45,37.3,45L37.3,45z M37.9,43c-1,1.2-1.6,2.7-1.9,4.2c-0.3,1.5-0.7,3-1.2,4.4c0,0.1-0.1,0.2-0.1,0.3v0
	c-0.1,0.2-0.2,0.4-0.3,0.6c-0.5,0.8-1,1.6-1.6,2.4c-0.8,0.9-1.6,2-2.2,3.1c-0.3,0.6-0.4,1.2-0.5,1.8c0,0.6,0.1,1.2,0.3,1.8h0
	c0-0.2,0-0.4,0-0.6v0h0c0.1-0.4,0.1-0.7,0.3-1c0.2-0.4,0.4-0.7,0.6-1.1c0.8-0.8,1.6-1.6,2.5-2.3c1-0.9,1.8-1.9,2.4-3.1l0,0
	c0-0.1,0.1-0.1,0.1-0.2c0.1-0.1,0.1-0.3,0.2-0.4c0.1-0.2,0.1-0.3,0.2-0.5c0.1-0.3,0.2-0.7,0.3-1c0.1-0.7,0.2-1.5,0.2-2.3
	c0-1.4,0-2.8,0.1-4.1C37.4,44.3,37.6,43.7,37.9,43C37.8,43,37.8,43,37.9,43L37.9,43z"/>
<path class="st12" d="M35.7,46.8L35.7,46.8L35.7,46.8z M35.9,46.2c0,0.2-0.1,0.3-0.2,0.5l0,0c-0.2,0.4-0.5,0.8-0.8,1.2
	c-0.3,0.4-0.6,0.8-0.9,1.2c-0.6,0.8-1.3,1.6-1.9,2.4c-0.6,0.7-1.1,1.5-1.6,2.3c-0.1,0.2-0.2,0.3-0.3,0.5c-0.1,0.2-0.2,0.4-0.2,0.5h0
	c-0.2,0.4-0.3,0.8-0.5,1.3c-0.2,0.9-0.4,1.8-0.3,2.7c0,0.9,0.2,1.8,0.7,2.5c0.5,0.6,1,1.1,1.6,1.6l0,0c-0.3-0.5-0.5-1-0.8-1.5
	c-0.1-0.3-0.2-0.5-0.2-0.8c0-0.3,0-0.7,0-1c0-0.4,0.1-0.7,0.1-1.1v0c0.1-0.7,0.3-1.4,0.5-2.1c0.1-0.3,0.3-0.6,0.4-0.8
	c0.2-0.3,0.4-0.6,0.5-0.9c0.8-1.3,1.7-2.6,2.5-4v0c0.4-0.7,0.7-1.5,1-2.3C35.9,47.8,36,47,35.9,46.2L35.9,46.2L35.9,46.2z"/>
<path class="st12" d="M38.7,43.5L38.7,43.5L38.7,43.5z M37.9,47.6L37.9,47.6L37.9,47.6z M39.1,43.1c-0.6,0.3-1.2,0.8-1.6,1.4
	c-0.4,0.5-0.6,1.2-0.8,1.8c-0.2,0.8-0.3,1.5-0.3,2.3c0,1,0,1.9,0.2,2.9c0.3,1.8,0.8,3.5,1.6,5.2c0.2,0.4,0.4,0.8,0.6,1.2
	c0.3,0.4,0.5,0.8,0.8,1.1c0.6,0.7,1.2,1.2,2,1.7c0.7,0.5,1.5,0.9,2.3,1.2c0.7,0.3,1.5,0.4,2.3,0.4c0.7,0,1.4-0.3,1.9-0.7
	c0.5-0.4,0.8-0.9,1-1.5c0.2-0.6,0.2-1.3,0.1-2h0c-0.1,0.4-0.2,0.8-0.3,1.2c-0.1,0.3-0.3,0.5-0.4,0.7c-0.1,0.2-0.3,0.3-0.5,0.5
	c-0.3,0.2-0.7,0.4-1.1,0.5c-0.2,0-0.4,0-0.7,0c-0.3-0.1-0.6-0.2-1-0.3c-0.6-0.3-1.2-0.6-1.7-1c-0.7-0.5-1.3-1.2-1.9-1.9
	c-0.4-0.5-0.8-1.1-1.1-1.8c-0.6-1.3-1.1-2.6-1.6-4h0c-0.5-1.4-0.9-2.8-1.1-4.2c-0.1-0.7-0.1-1.5-0.1-2.3c0.1-0.4,0.1-0.7,0.3-1
	c0.2-0.3,0.3-0.7,0.6-1l0,0C38.8,43.3,38.9,43.2,39.1,43.1L39.1,43.1L39.1,43.1z"/>
<path class="st12" d="M38,43.4L38,43.4L38,43.4z M37.8,43.9L37.8,43.9L37.8,43.9z M37.7,43.9L37.7,43.9L37.7,43.9z M37.2,44
	c-0.3,0.4-0.5,0.8-0.7,1.2l0,0l0,0c-0.1,0.2-0.2,0.4-0.3,0.6c-0.4,0.9-0.6,1.9-0.6,2.9c0,0.3,0.2,0.5,0.4,0.6c0.2,0.1,0.5,0,0.7-0.1
	c0.1-0.1,0.2-0.3,0.2-0.5c0.1-0.5,0.1-1.1,0.1-1.6c0.1-0.3,0.1-0.6,0.2-1c0.1-0.2,0.1-0.5,0.1-0.8c0.1-0.3,0.1-0.7,0.2-1h0
	c0.1-0.2,0.2-0.4,0.4-0.6l0.1-0.1l0,0l0,0c-0.1,0.1-0.2,0.1-0.3,0.2c0-0.1,0-0.1,0.1-0.2v0c0-0.1,0.1-0.2,0.2-0.3
	c0,0,0.1-0.1,0.1-0.1l0,0h0c0,0,0,0,0.1-0.1v0h0C37.7,43.5,37.4,43.7,37.2,44L37.2,44z"/>
<path class="st12" d="M37.8,42.2c-0.4,0.4-0.7,1-0.7,1.6c0,0.1,0,0.1,0,0.2c-0.1,0.1-0.1,0.2-0.2,0.4l0,0c-0.3,0.4-0.5,0.8-0.6,1.3
	c-0.1,0.2,0,0.4,0.2,0.5c0.2,0.1,0.5,0.1,0.7-0.2c0.4-0.5,0.7-1,1-1.6c0.3-0.6,0.5-1.2,0.5-1.9c0-0.3-0.2-0.5-0.5-0.5
	C38,42.1,37.9,42.1,37.8,42.2L37.8,42.2z"/>
<path class="st12" d="M43.8,54L43.8,54L43.8,54L43.8,54L43.8,54z M46.1,48.3L46.1,48.3L46.1,48.3z M46.7,48
	c-0.2,0.1-0.4,0.2-0.6,0.3l0,0c-0.6,0.3-1.3,0.4-1.9,0.7v0c-0.5,0.3-1,0.7-1.3,1.2c-0.1,0.1-0.1,0.2-0.1,0.2
	c-0.1,0.1-0.1,0.2-0.1,0.3c-0.1,0.1-0.1,0.2-0.1,0.3c0,0.1,0,0.2-0.1,0.2c0,0.2-0.1,0.4-0.1,0.6c0,0.3,0.1,0.7,0.2,1
	c0.3,0.6,0.7,1.2,1.3,1.5c0.3,0.2,0.7,0.3,1.1,0.4l0,0c-0.1,0-0.1-0.1-0.2-0.1l0,0c-0.3-0.2-0.6-0.5-0.8-0.8l0,0l0,0l0,0l0,0
	c-0.2-0.2-0.3-0.4-0.4-0.7c-0.2-0.4-0.2-0.8-0.2-1.2c0-0.2,0.1-0.5,0.2-0.7c0-0.1,0.1-0.2,0.1-0.3c0.1-0.2,0.3-0.5,0.4-0.7
	c0.3-0.3,0.5-0.6,0.9-0.8C45.6,49.3,46.2,48.7,46.7,48L46.7,48z"/>
<path class="st12" d="M48,52.8L48,52.8L48,52.8z M49,46.3c0,0.1,0,0.2,0,0.3l0,0c-0.1,0.4-0.2,0.8-0.3,1.2c-0.6,1.3-1.5,2.3-1.9,3.7
	v0c-0.1,0.4-0.2,0.8-0.2,1.2c0,0.4,0,0.8,0.2,1.1c0.3,0.6,0.7,1.1,1.2,1.6c0.2,0.2,0.3,0.3,0.5,0.5c0.1,0.1,0.2,0.3,0.3,0.5
	c0.1,0.1,0.1,0.3,0.1,0.4c0,0,0,0.1,0,0.1h0v0c0.1-0.5,0.2-1,0-1.4c-0.1-0.4-0.3-0.9-0.5-1.3c-0.1-0.2-0.2-0.4-0.2-0.7
	c0-0.2,0-0.4,0-0.6C48.3,50.7,49.9,48.5,49,46.3L49,46.3L49,46.3L49,46.3z"/>
<path class="st12" d="M40.4,46.8l0,0.1L40.4,46.8z M40.4,46.7L40.4,46.7L40.4,46.7z M41,44.1L41,44.1L41,44.1z M42,42.6
	c-0.6,0.3-1.2,0.7-1.7,1.3c-0.5,0.6-0.9,1.4-1.1,2.1C38.9,47,38.9,48,39,48.9c0.1,0.9,0.4,1.7,0.8,2.5c0.1,0.3,0.3,0.5,0.4,0.8h0
	c0-0.8,0-1.7,0-2.5h0c0-0.8,0.1-1.6,0.1-2.4c0-0.2,0.1-0.4,0.1-0.5c0.1-0.9,0.3-1.7,0.6-2.5c0.2-0.5,0.4-0.9,0.7-1.3l0,0
	C41.8,42.9,41.9,42.8,42,42.6L42,42.6z"/>
<path class="st12" d="M39.9,66.6c0,0.1,0.1,0.1,0.1,0.1C40.1,66.7,40,66.6,39.9,66.6C39.9,66.6,39.9,66.6,39.9,66.6z"/>
<path class="st12" d="M49.4,20.1c-1.8,0.2-3.6,0.6-5.3,1.2c-1.6,0.5-3.2,1.2-4.7,2c-2.7,1.5-5,3.4-7.1,5.7c-1,1.2-1.9,2.4-2.8,3.7
	c-0.8,1.2-1.5,2.5-2.2,3.8c-1.3,2.8-2.3,5.8-3,8.8c-0.3,1.3-0.6,2.7-0.9,4.1h0c1.4-2.7,2.8-5.5,4.3-8.2c0.7-1.3,1.4-2.6,2.2-3.9
	c0.7-1.3,1.5-2.5,2.3-3.7c0.3-0.4,0.6-0.8,0.9-1.2v0c1.3-1.7,2.9-3.2,4.5-4.6c1.7-1.2,3.4-2.3,5.3-3.1c2-0.8,4.1-1.4,6.2-1.8
	c2.2-0.2,4.4-0.2,6.5,0.1c4.2,0.7,8.2,1.8,12.1,3.5c1.6,0.7,3.3,1.5,4.9,2.3c1.4,0.7,2.9,1.5,4.2,2.4c0.6,0.4,1.3,0.9,1.9,1.3
	c0.7,0.5,1.4,0.9,2.1,1.3v0c1.5,0.9,3,1.7,4.6,2.3c1.2,0.5,2.5,0.7,3.8,0.7c1.2,0,2.4-0.3,3.4-1v0c-0.3,0.1-0.6,0.1-0.9,0.2
	c-0.5,0.1-1.1,0.1-1.6,0c-0.8-0.1-1.5-0.3-2.2-0.6c-1.4-0.7-2.8-1.5-4.1-2.4c-1.4-1-2.6-2-4-3c-0.6-0.4-1.2-0.9-1.9-1.3
	c-0.6-0.4-1.3-0.8-2-1.1c-1.6-0.9-3.1-1.7-4.8-2.4l0,0c-3.5-1.7-7.2-3-10.9-4c-1.9-0.5-3.8-0.8-5.8-1c-0.9-0.1-1.7-0.1-2.6-0.1
	C51.3,19.9,50.4,20,49.4,20.1L49.4,20.1z"/>
<path class="st12" d="M58.3,28.5l0.1,0L58.3,28.5z M46.8,25c-1.5,0.1-3,0.4-4.4,0.9c-1.3,0.4-2.5,0.9-3.7,1.6
	c-1.1,0.6-2.2,1.3-3.1,2c-1.1,0.8-2.1,1.7-3,2.7c-0.9,1-1.7,2-2.4,3.1c-0.8,1.2-1.4,2.5-1.8,3.8c-0.5,1.6-0.9,3.2-1.5,4.7h0
	c1.5-2,2.5-4.3,4-6.3c0.9-1.1,1.8-2.1,2.8-3c0.9-0.9,1.9-1.8,2.9-2.6c1.5-1.2,3.1-2.1,4.9-2.9c1.4-0.6,2.9-1,4.5-1.2
	c2.1-0.2,4.3-0.2,6.4,0c1.1,0.1,2.2,0.2,3.3,0.4c1,0.1,1.9,0.2,2.9,0.4c2.1,0.3,4.3,0.7,6.4,0.9l0,0c1.1,0.1,2.3,0.1,3.4,0.1
	c1.1-0.1,2.1-0.3,3.2-0.6c0.7-0.2,1.3-0.6,1.8-1l0,0c-0.5,0.2-1,0.3-1.5,0.4c-0.9,0.1-1.9,0.1-2.8-0.1c-2.2-0.4-4.4-0.9-6.5-1.6
	c-1-0.3-2-0.5-3-0.7c-0.6-0.1-1.3-0.2-1.9-0.3c-0.7-0.1-1.4-0.2-2.1-0.3h0c-2.1-0.3-4.2-0.4-6.3-0.5C48.4,24.9,47.6,25,46.8,25
	L46.8,25z"/>
<path class="st12" d="M16.1,53.4c0,0.1,0,0.1,0,0.2L16.1,53.4z M51.3,12.1c-2.3,0.1-4.5,0.3-6.7,0.8c-3.8,0.8-7.4,2.3-10.6,4.5
	c-3.1,2.1-5.9,4.7-8.2,7.7c-2.4,3-4.4,6.3-6.1,9.8c-0.5,1.1-1,2.2-1.4,3.4c-0.4,1.1-0.7,2.2-0.9,3.3c-0.5,2.3-0.8,4.6-0.9,7
	c-0.1,1.6-0.2,3.3-0.4,4.9c-0.1,1.2-0.4,2.3-0.9,3.4c-0.2,0.5-0.5,1-0.8,1.4l0,0c1.2-1.1,2.2-2.5,2.7-4.1c0.6-1.6,1.1-3.3,1.4-4.9
	c0.4-2,0.8-4,1.2-5.9v0c0.4-2,1-3.9,1.7-5.8c0.8-1.9,1.7-3.7,2.8-5.4c1-1.7,2.1-3.3,3.3-4.9c1.9-2.4,4-4.6,6.4-6.4
	c2-1.5,4.1-2.7,6.3-3.7c2.4-1,4.9-1.6,7.4-2c3.4-0.4,6.9-0.4,10.3,0c3.6,0.5,7,1.4,10.3,2.8c1.7,0.7,3.3,1.5,4.9,2.5
	c1.6,1,3.2,2,4.7,3.2c1.5,1.2,3,2.5,4.4,3.8c0.7,0.7,1.5,1.4,2.2,2.1c0.7,0.6,1.3,1.3,2,1.9c0.9,1.1,2,2.1,3.1,3
	c0.5,0.4,1.2,0.7,1.8,0.8c0.6,0.1,1.3,0,1.9-0.2v0h0c-0.3,0-0.5,0-0.8,0c-0.2,0-0.5-0.1-0.7-0.2c-0.3-0.1-0.5-0.3-0.7-0.4
	c-0.4-0.3-0.8-0.7-1.1-1.1c-0.5-0.6-0.9-1.3-1.3-2c-0.4-0.7-0.9-1.4-1.4-2.1c-1.4-1.9-3-3.6-4.7-5.2c-1.8-1.6-3.6-3-5.6-4.4
	c-1.8-1.3-3.8-2.4-5.8-3.3c-4.1-2-8.6-3.3-13.2-3.9c-1.8-0.2-3.5-0.3-5.3-0.3C52.2,12.1,51.8,12.1,51.3,12.1L51.3,12.1z"/>
<path class="st12" d="M34.3,28.1c-2.9,1.3-5.4,3.2-7.6,5.5c-1.1,1.2-2.1,2.5-2.9,3.8c-0.8,1.3-1.6,2.7-2.2,4.1
	c-0.7,1.5-1.4,3.1-1.9,4.8c-0.5,1.6-1,3.1-1.6,4.7c-0.3,0.9-0.7,1.9-1.1,2.8v0c-0.5,1.1-1,2.2-1.6,3.2l0,0c2.2-2.5,4-5.2,5.3-8.2
	c0.7-1.5,1.4-3,2.1-4.4c0.7-1.4,1.4-2.8,2.2-4.2h0c1.4-2.5,3-4.9,4.7-7.2C31.2,31.3,32.7,29.6,34.3,28.1L34.3,28.1z"/>
<path class="st12" d="M16.2,58.2L16.2,58.2L16.2,58.2z M27.7,35.7c-1.3,1-2.6,2.2-3.8,3.4c-0.6,0.7-1.2,1.4-1.7,2.1
	c-0.5,0.8-0.9,1.5-1.3,2.3c-0.8,1.8-1.5,3.6-2.1,5.5c-0.2,0.7-0.5,1.5-0.7,2.2c-0.2,0.6-0.3,1.3-0.5,1.9v0c-0.4,1.7-0.9,3.5-1.6,5.1
	c-0.3,0.8-0.8,1.6-1.3,2.4l0,0h0c-0.3,0.4-0.6,0.7-0.9,1l0,0v0c1.1-0.6,2.1-1.5,2.8-2.6c0.8-1.1,1.5-2.3,2-3.6
	c0.6-1.3,1.1-2.7,1.7-4.1c0.3-0.7,0.6-1.3,0.8-2c0.3-0.8,0.6-1.5,0.8-2.3c0.5-1.5,1-3,1.6-4.4h0C24.8,40.2,26.2,37.9,27.7,35.7
	L27.7,35.7z"/>
<path class="st12" d="M14.5,62.5L14.5,62.5L14.5,62.5L14.5,62.5z M28.2,34.5c-1,1-1.8,2.3-2.2,3.6c-0.5,1.3-0.9,2.7-1.4,4.1
	c-0.7,1.6-1.5,3.2-2.2,4.8c-0.4,0.9-0.8,1.8-1.2,2.8c-0.3,0.8-0.6,1.7-0.9,2.6c-0.2,0.8-0.5,1.5-0.8,2.2l0,0
	c-0.5,1.2-1.1,2.5-1.9,3.6c-0.3,0.5-0.7,1.1-1,1.6c-0.3,0.5-0.7,1.1-1,1.6c-0.3,0.4-0.7,0.8-1,1.1h0h0c-0.1,0.1-0.3,0.2-0.4,0.3v0h0
	c1.4-0.6,2.6-1.5,3.5-2.7c0.5-0.6,1.1-1.2,1.6-1.8h0c0.6-0.7,1.1-1.4,1.6-2.1c0.4-0.6,0.7-1.2,1.1-1.8c0.4-0.7,0.6-1.4,0.9-2.1
	c0.7-1.7,1.5-3.4,2.3-5.2c0.4-0.8,0.7-1.7,1-2.6v0c0.3-0.8,0.5-1.6,0.7-2.4c0.2-1.3,0.3-2.7,0.5-4c0,0,0,0.1,0,0.1
	c0.1-1,0.3-1.9,0.7-2.8C28,35,28.1,34.8,28.2,34.5L28.2,34.5L28.2,34.5L28.2,34.5z"/>
<path class="st12" d="M15.4,59L15.4,59L15.4,59z M21.5,49.9c-1.8,2-3.3,4.2-4.5,6.5c-0.1,0.1-0.2,0.3-0.2,0.4
	c-0.1,0.1-0.1,0.3-0.2,0.4c-0.1,0.2-0.3,0.5-0.4,0.7c-0.3,0.4-0.5,0.8-0.8,1.2v0c-0.8,1-1.8,1.9-2.8,2.7l0,0
	c-0.2,0.2-0.5,0.4-0.7,0.5v0c1.3-0.4,2.6-1,3.7-1.8c0.6-0.4,1.1-0.9,1.6-1.4c0.2-0.2,0.5-0.5,0.7-0.8c0.1-0.2,0.3-0.4,0.4-0.6h0
	c0.1-0.2,0.2-0.3,0.3-0.5C19.9,55,20.5,52.4,21.5,49.9L21.5,49.9L21.5,49.9z"/>
<path class="st12" d="M22.1,52.6c-1.6,1.7-2.8,3.7-3.3,6l0,0v0c0,0.1-0.1,0.2-0.1,0.4c0,0.2-0.1,0.4-0.1,0.6c0,0.3,0,0.6,0,0.9v0
	c0,0.6,0.1,1.2,0.2,1.8c0.2,1.2,0.7,2.2,1.4,3.2l0,0c-0.2-0.6-0.3-1.2-0.4-1.8c0,0,0,0.1,0,0.1h0c-0.1-0.9-0.1-1.9,0-2.8
	c0-0.3,0.1-0.6,0.2-0.9c0-0.2,0.1-0.3,0.1-0.5c0.1-0.2,0.1-0.4,0.1-0.6C20.7,56.8,21.4,54.7,22.1,52.6L22.1,52.6L22.1,52.6
	L22.1,52.6z"/>
<path class="st12" d="M21,56.6L21,56.6l0-0.1L21,56.6z M21.8,52.7c-0.4,1.3-0.6,2.6-0.8,3.9l0,0l0,0.1l0,0.1l0-0.1h0
	c-0.1,1.1-0.3,2.1-0.6,3.1c-0.1,0.3-0.2,0.6-0.2,0.9c-0.1,0.3-0.1,0.7-0.2,1v0c-0.1,0.7-0.1,1.4-0.1,2c0.1,1.3,0.6,2.5,1.4,3.6l0,0
	c-0.1-0.4-0.2-0.9-0.3-1.3c-0.1-0.6-0.1-1.2,0-1.8c0.1-0.6,0.2-1.2,0.4-1.8c0.1-0.3,0.2-0.7,0.3-1l0.2-0.5l0.1-0.3
	c0-0.1,0.1-0.2,0.1-0.4l0,0.1c0.4-1.2,0.5-2.4,0.3-3.7c-0.1-1.2-0.3-2.3-0.5-3.5v0C21.8,53,21.8,52.8,21.8,52.7L21.8,52.7L21.8,52.7
	z"/>
<path class="st12" d="M49.2,8.4L49.2,8.4L49.2,8.4z M44.4,6.8c-1.9,0.6-3.8,1.3-5.6,2.2c-1.8,1-3.6,2.1-5.2,3.4
	c-1.6,1.2-3,2.5-4.4,4c-1.4,1.5-2.6,3-3.8,4.7c-0.8,1.1-1.5,2.3-2.2,3.6c-0.7,1.3-1.3,2.6-1.8,4c-1,2.7-1.8,5.4-2.3,8.2h0
	c1.3-2.8,2.7-5.5,4.3-8.2c0.8-1.3,1.6-2.6,2.4-3.9c0.8-1.2,1.6-2.5,2.5-3.7h0c1.9-2.5,4.2-4.8,6.7-6.7c2.1-1.6,4.4-3,6.8-4
	c2.4-1,4.9-1.7,7.5-2C52.1,8,55,8,57.9,8.4c3.2,0.5,6.3,1.3,9.2,2.5c3.1,1.3,6,3,8.6,5c1.6,1.3,3.2,2.7,4.6,4.3
	c1.5,1.6,2.8,3.2,4.2,4.9s2.7,3.4,4.2,4.9c0.7,0.7,1.4,1.4,2.2,2c0.7,0.5,1.3,1.1,1.9,1.7c0.1,0.1,0.2,0.3,0.4,0.4
	c0.2,0.2,0.3,0.5,0.4,0.7c0.1,0.1,0.1,0.3,0.1,0.4c0,0.1,0,0.2,0,0.4c0,0.2-0.1,0.3-0.1,0.5c-0.1,0.1-0.1,0.3-0.2,0.4
	c-0.1,0.1-0.1,0.2-0.2,0.2c-0.1,0.1-0.2,0.1-0.2,0.1c-0.1,0-0.2,0.1-0.3,0.1c-0.2,0-0.3,0-0.5,0c-0.2,0-0.4-0.1-0.6-0.2
	c-0.3-0.1-0.6-0.3-0.8-0.5c-0.1-0.1-0.3-0.2-0.4-0.4l0,0c0.3,0.7,0.9,1.2,1.5,1.6c0.3,0.2,0.6,0.3,1,0.3c0.4,0,0.8-0.1,1.1-0.2
	c0.4-0.2,0.7-0.5,0.9-0.9c0.3-0.4,0.4-0.8,0.5-1.2c0.1-0.5,0-0.9-0.1-1.4c-0.1-0.5-0.3-0.9-0.6-1.3c-0.5-0.8-1-1.5-1.7-2.2
	c-0.6-0.7-1.3-1.4-1.9-2.1c-1.4-1.6-2.8-3.2-4.2-4.9c-1.4-1.7-2.7-3.3-4.2-4.9c-1.4-1.6-3-3.1-4.6-4.4c-3.2-2.6-6.7-4.6-10.5-6.1
	C63,6.4,58.3,5.5,53.6,5.5C50.4,5.5,47.4,5.9,44.4,6.8L44.4,6.8z"/>
<path class="st12" d="M96.7,34.7L96.7,34.7L96.7,34.7z M79.2,27.1c1.1,1.4,2.3,2.7,3.6,4c1.4,1.3,2.8,2.4,4.4,3.4
	c0.2,0.1,0.4,0.2,0.6,0.4c0.2,0.1,0.4,0.2,0.6,0.4c0.4,0.2,0.9,0.5,1.4,0.7c0.8,0.3,1.6,0.6,2.5,0.6c1.6,0.2,3.2-0.3,4.5-1.3
	c0.3-0.3,0.7-0.6,0.9-0.9l0,0c-0.3,0.2-0.6,0.3-1,0.5c-0.5,0.2-1,0.4-1.6,0.4c-0.5,0.1-1,0.1-1.4,0c-0.6-0.1-1.1-0.2-1.7-0.5
	c-0.7-0.3-1.4-0.7-2.1-1.2c-0.4-0.2-0.7-0.5-1.1-0.8c-0.4-0.3-0.8-0.5-1.1-0.7c-1.6-1-3.1-1.9-4.7-2.9
	C81.7,28.5,80.4,27.8,79.2,27.1L79.2,27.1z"/>
<path class="st12" d="M83.7,35.2L83.7,35.2L83.7,35.2L83.7,35.2L83.7,35.2z M84.5,39.1L84.5,39.1L84.5,39.1z M84.2,36.1L84.2,36.1
	L84.2,36.1z M83.4,34.8c0.1,0.1,0.2,0.3,0.3,0.4l0,0l0,0l0,0l0,0h0c0.2,0.3,0.4,0.6,0.5,0.9c0.2,0.4,0.3,0.8,0.3,1.2
	c0.1,0.6,0.1,1.2,0,1.8c-0.2,1.2-0.5,2.4-1,3.6c-0.3,0.7-0.6,1.4-0.8,2.1h0c-0.3,0.9-0.4,1.9-0.3,2.8c0,0.5,0.1,1,0.3,1.5
	c0.1,0.4,0.3,0.8,0.5,1.2c0.3,0.8,0.7,1.7,1,2.5c0.4,0.9,0.7,1.7,1.2,2.6c0.4,0.7,0.7,1.4,1.1,2.1v0c0.2,0.5,0.4,1.1,0.5,1.6
	c0,0.3,0,0.5,0,0.8c0,0.2-0.1,0.3-0.1,0.4c-0.1,0.1-0.1,0.2-0.2,0.3c-0.1,0.1-0.2,0.2-0.3,0.3c-0.2,0.1-0.4,0.3-0.6,0.4
	c-0.4,0.2-0.9,0.3-1.3,0.3c-0.9,0.1-1.8,0.2-2.7,0.4v0h0c0.4,0,0.7,0,1.1,0.1l0,0c0.8,0.2,1.6,0.3,2.4,0.3c0.9,0,1.8-0.3,2.5-0.8
	c0.6-0.5,0.9-1.2,1-1.9c0.1-0.4,0.1-0.8,0.1-1.2c0-0.4-0.1-0.8-0.2-1.3c-0.2-0.9-0.5-1.7-0.8-2.5c-0.3-0.8-0.6-1.7-0.9-2.5
	c-0.3-0.9-0.6-1.8-1-2.7c-0.2-0.4-0.3-0.9-0.5-1.3v0c-0.1-0.4-0.2-0.7-0.3-1.1c-0.1-0.6-0.1-1.1,0-1.7c0.1-0.7,0.3-1.4,0.4-2.1v0
	c0.1-0.7,0.2-1.4,0.3-2.1c0.2-1.3,0-2.6-0.3-3.9C85.2,36.3,84.4,35.4,83.4,34.8L83.4,34.8z"/>
<path class="st12" d="M83,61.1c0,0-0.1,0.1-0.1,0.1c-0.1,0.1-0.1,0.1-0.2,0.2c-0.1,0.1-0.3,0.2-0.4,0.2c-0.2,0.1-0.4,0.1-0.6,0.2
	c-0.1,0-0.2,0-0.2,0c0.3-0.2,0.6-0.4,0.9-0.5C82.6,61.2,82.8,61.1,83,61.1L83,61.1z M81.3,56.7L81.3,56.7L81.3,56.7z M78.7,57.1
	c-0.6,0.4-1.1,0.9-1.5,1.5c-0.4,0.6-0.6,1.3-0.5,2c0,0.3,0.1,0.6,0.3,0.9c0.1,0.2,0.3,0.4,0.4,0.6c0.2,0.2,0.4,0.3,0.6,0.4
	c0.3,0.2,0.6,0.2,1,0.2l0,0c0.7,0,1.5-0.2,2.1-0.6c0.1,0,0.1-0.1,0.2-0.1c0.4,0.2,0.9,0.3,1.4,0.2c0.3,0,0.6-0.1,0.9-0.3
	c0.2-0.1,0.3-0.2,0.4-0.4c0.2-0.2,0.3-0.5,0.3-0.7c0-0.3-0.1-0.6-0.3-0.8c-0.1-0.2-0.3-0.3-0.5-0.3c-0.3-0.1-0.7-0.1-1-0.1
	c-0.3,0-0.7,0.1-1,0.2c-0.4,0.1-0.8,0.3-1.2,0.5c-0.1,0.1-0.2,0.1-0.4,0.2v0c-0.2,0.1-0.3,0.1-0.5,0.2c-0.1,0-0.2,0-0.3,0
	c-0.1,0-0.1,0-0.2,0c0,0-0.1,0-0.1,0c0,0,0,0-0.1-0.1c0,0,0-0.1-0.1-0.1h0c0-0.1,0-0.1-0.1-0.2c0-0.1,0-0.2,0-0.3
	c0-0.2,0.1-0.5,0.2-0.7c0.2-0.4,0.4-0.8,0.7-1.2c0.2-0.3,0.5-0.5,0.8-0.8c0.2-0.1,0.4-0.2,0.6-0.3c0.1-0.1,0.3-0.1,0.4-0.1
	c0.1,0,0.3,0,0.4,0c0.1,0,0.1,0,0.2,0l0,0c-0.3-0.2-0.7-0.4-1.1-0.4C80.1,56.4,79.3,56.7,78.7,57.1L78.7,57.1z"/>
<path class="st12" d="M85.9,41.7c0,0.2-0.1,0.4-0.2,0.6c-0.1,0.2-0.2,0.3-0.3,0.5l0,0l0,0c-0.3,0.3-0.5,0.6-0.8,0.8l0,0v0
	c0.4-0.1,0.9-0.3,1.2-0.7C86,42.6,86.1,42.1,85.9,41.7L85.9,41.7L85.9,41.7z"/>
<path class="st12" d="M87,41.5c0,0.1,0,0.1,0,0.2v0h0c0,0.4-0.1,0.7-0.3,1.1c-0.1,0.2-0.2,0.4-0.3,0.6c-0.1,0.2-0.3,0.3-0.5,0.5
	c-0.3,0.2-0.6,0.4-0.9,0.6v0h0c0.7,0.1,1.4-0.2,1.9-0.7c0.2-0.3,0.3-0.6,0.3-1C87.2,42.2,87.1,41.8,87,41.5L87,41.5L87,41.5L87,41.5
	z"/>
<path class="st12" d="M86.4,42.3L86.4,42.3L86.4,42.3z M86.6,41.8c0,0,0,0.1,0,0.1v0c0,0.1-0.1,0.2-0.1,0.4
	c-0.1,0.2-0.2,0.3-0.3,0.5c-0.2,0.3-0.4,0.5-0.7,0.7l0,0c0.4-0.1,0.7-0.3,1-0.6C86.7,42.6,86.7,42.2,86.6,41.8L86.6,41.8L86.6,41.8z
	"/>
<path class="st12" d="M87.2,43.1L87.2,43.1L87.2,43.1z M87.3,42.6c0,0.2-0.1,0.3-0.2,0.5l0,0h0c-0.1,0.3-0.3,0.5-0.4,0.8
	c-0.1,0.2-0.3,0.3-0.4,0.5c0,0,0,0,0-0.1c-0.1,0.1-0.2,0.2-0.3,0.2l0,0c-0.2,0.1-0.4,0.3-0.6,0.3c-0.2,0.1-0.4,0.2-0.7,0.2h0l-0.1,0
	v0c0.7,0.3,1.5,0.1,2-0.4C87.2,44.1,87.5,43.3,87.3,42.6L87.3,42.6L87.3,42.6L87.3,42.6z"/>
<path class="st12" d="M84.8,45.6L84.8,45.6L84.8,45.6z M85.8,45.3L85.8,45.3L85.8,45.3z M86.7,44.8c-0.3,0.2-0.6,0.4-0.9,0.5
	c0,0-0.1,0-0.1,0.1c-0.3,0.1-0.6,0.2-0.8,0.2h0c-0.1,0-0.2,0-0.2,0v0h0c0.4,0.2,0.8,0.2,1.2,0C86.1,45.5,86.5,45.2,86.7,44.8
	L86.7,44.8z"/>
<path class="st12" d="M85.2,43.6L85.2,43.6L85.2,43.6L85.2,43.6z M86.7,41.9c-0.1,0.2-0.3,0.5-0.5,0.7l0,0c-0.3,0.4-0.7,0.8-1.1,1.1
	l0,0l0,0l0,0l0,0h0c-0.2,0.2-0.5,0.3-0.7,0.4v0c0.6,0,1.2-0.2,1.6-0.6C86.5,43,86.7,42.4,86.7,41.9L86.7,41.9L86.7,41.9z"/>
<path class="st12" d="M86.6,43.2c-0.3,0.4-0.6,0.7-1,1.1c-0.2,0.1-0.4,0.3-0.6,0.3l0,0c-0.1,0-0.2,0.1-0.3,0.1v0v0
	c0.5,0.1,0.9,0,1.3-0.3l0,0C86.3,44.1,86.5,43.6,86.6,43.2L86.6,43.2z"/>
<path class="st12" d="M85.8,42.4L85.8,42.4L85.8,42.4z M86.3,41.9L86.3,41.9L86.3,41.9z M86.6,41.4c0,0,0,0.1,0,0.1l0,0v0
	c-0.1,0.1-0.1,0.3-0.2,0.4c-0.2,0.2-0.3,0.4-0.5,0.5c-0.2,0.2-0.4,0.3-0.7,0.5v0l0,0c0.4,0,0.8-0.1,1.1-0.4
	C86.5,42.2,86.6,41.8,86.6,41.4L86.6,41.4L86.6,41.4L86.6,41.4z"/>
<path class="st12" d="M81.5,44.8L81.5,44.8L81.5,44.8z M83,42.6c-0.3,0.6-0.6,1.1-1,1.7c-0.2,0.2-0.3,0.4-0.5,0.5l0,0v0
	c-0.2,0.1-0.4,0.2-0.6,0.3v0c0.6,0,1.3-0.3,1.6-0.8l0,0h0c0.2-0.3,0.3-0.5,0.3-0.8C82.9,43.2,83,42.9,83,42.6L83,42.6L83,42.6
	L83,42.6z"/>
<path class="st12" d="M82,42.6c0,0.1-0.1,0.2-0.1,0.3l0,0c-0.2,0.4-0.4,0.8-0.7,1.1c-0.3,0.3-0.5,0.7-0.8,1.1l0,0
	c0.5-0.2,0.9-0.6,1.2-1l0,0l0,0C82,43.6,82.1,43.1,82,42.6L82,42.6L82,42.6L82,42.6z"/>
<path class="st12" d="M80.3,43.6 M80.7,41.4c0,0.3,0,0.5-0.1,0.8c-0.1,0.5-0.2,0.9-0.4,1.4l0,0l0,0l0,0l0,0
	c-0.2,0.5-0.5,0.9-0.8,1.3l0,0h0c0.7-0.3,1.2-0.8,1.4-1.5l0,0h0c0.1-0.3,0.1-0.7,0.1-1C81,42.1,80.9,41.7,80.7,41.4L80.7,41.4
	L80.7,41.4L80.7,41.4z"/>
<path class="st12" d="M79.5,43.4L79.5,43.4L79.5,43.4z M79.9,41.5c0,0.2,0,0.5-0.1,0.7l0,0c-0.1,0.4-0.2,0.8-0.3,1.2
	c-0.1,0.3-0.3,0.6-0.5,0.8l0,0c0,0,0,0.1-0.1,0.1l0,0v0c0.5-0.2,0.9-0.6,1.1-1.1C80.2,42.6,80.1,42,79.9,41.5L79.9,41.5L79.9,41.5z"
	/>
<path class="st12" d="M78.4,43c0,0.1,0,0.1,0,0.2c0,0.1,0,0.2,0,0.4c0,0.3-0.1,0.6-0.2,0.8l0,0l0,0c0.2-0.2,0.3-0.4,0.4-0.7
	C78.7,43.5,78.6,43.2,78.4,43L78.4,43L78.4,43z"/>
<path class="st12" d="M76.3,43.6c0.3,0.2,0.6,0.5,1,0.7l0,0C77.1,43.9,76.7,43.7,76.3,43.6L76.3,43.6z"/>
<path class="st12" d="M79,43.2L79,43.2L79,43.2z M79,42.9L79,42.9L79,42.9z M79,42.7L79,42.7L79,42.7z M79,42.7L79,42.7L79,42.7z
	 M78.7,41.9c0,0.1,0.1,0.2,0.1,0.2v0c0.1,0.2,0.1,0.4,0.2,0.6c0,0.1,0,0.1,0,0.2c0,0.1,0,0.3,0,0.4c0,0.2-0.1,0.4-0.1,0.6l0,0l0,0
	c0.3-0.2,0.4-0.6,0.4-1C79.2,42.5,79,42.1,78.7,41.9L78.7,41.9z"/>
<path class="st12" d="M77.7,43.9L77.7,43.9L77.7,43.9z M76.8,42.8c0.2,0.2,0.5,0.4,0.7,0.6c0.1,0.1,0.1,0.2,0.1,0.2
	c0,0.1,0,0.2,0.1,0.2v0v0v0v0c0,0.1,0,0.2,0,0.2h0v0c0.2-0.3,0.2-0.6,0-0.9C77.4,43,77.1,42.8,76.8,42.8L76.8,42.8L76.8,42.8z"/>
<path class="st12" d="M76.2,43.1c0.3,0.2,0.6,0.3,0.9,0.4l0,0l0,0C76.9,43.3,76.6,43.1,76.2,43.1L76.2,43.1L76.2,43.1z"/>
<path class="st12" d="M77.8,42.4L77.8,42.4L77.8,42.4z M77.6,42.3c0,0,0.1,0.1,0.1,0.1v0c0,0,0.1,0.1,0.1,0.1c0,0.1,0.1,0.1,0.1,0.2
	c0.1,0.1,0.1,0.3,0.1,0.4c0,0.2,0,0.4,0,0.6l0,0c0.2-0.3,0.2-0.6,0.1-0.8C78.2,42.6,77.9,42.4,77.6,42.3L77.6,42.3L77.6,42.3z"/>
<path class="st12" d="M81.5,42.1c-0.1,0.3-0.2,0.7-0.3,1c-0.1,0.1-0.1,0.2-0.2,0.3l0,0c0.2-0.1,0.4-0.3,0.5-0.6
	C81.6,42.6,81.6,42.3,81.5,42.1L81.5,42.1L81.5,42.1z"/>
<path class="st12" d="M82.5,42.1c-0.2,0.3-0.3,0.7-0.4,1.1l0,0C82.4,42.9,82.6,42.5,82.5,42.1L82.5,42.1L82.5,42.1L82.5,42.1z"/>
<path class="st12" d="M75.2,44.2c0.4,0.3,0.9,0.4,1.4,0.3v0l0,0c-0.2-0.1-0.4-0.1-0.6-0.2c-0.2,0-0.4-0.1-0.7-0.1h0
	C75.3,44.2,75.2,44.2,75.2,44.2L75.2,44.2L75.2,44.2z"/>
<path class="st12" d="M74.8,43.6L74.8,43.6c0.4,0.1,0.8,0.2,1.3,0.3v0c-0.3-0.2-0.6-0.3-1-0.3C75,43.6,74.9,43.6,74.8,43.6
	L74.8,43.6z"/>
<path class="st12" d="M74.6,43.8c0,0.3,0.2,0.6,0.4,0.8c0.2,0.2,0.6,0.3,0.9,0.2v0c-0.2-0.1-0.5-0.2-0.7-0.4
	c-0.1-0.1-0.3-0.2-0.4-0.4l0,0C74.7,44,74.6,43.9,74.6,43.8L74.6,43.8L74.6,43.8L74.6,43.8z"/>
<path class="st12" d="M74.2,44.3L74.2,44.3L74.2,44.3z M74.1,44c-0.1,0.2,0,0.5,0.1,0.7c0.2,0.2,0.4,0.3,0.7,0.3l0,0h0
	c-0.2-0.1-0.3-0.3-0.5-0.4l0,0h0c-0.1-0.1-0.1-0.2-0.2-0.3C74.1,44.2,74.1,44.1,74.1,44L74.1,44L74.1,44L74.1,44z"/>
<path class="st12" d="M73.5,45c0.2,0.1,0.4,0.2,0.5,0.1v0C73.8,45,73.7,45,73.5,45L73.5,45L73.5,45z"/>
<path class="st12" d="M73.1,44.4c0.1,0.2,0.4,0.3,0.6,0.3v0C73.5,44.6,73.3,44.5,73.1,44.4L73.1,44.4L73.1,44.4z"/>
<path class="st12" d="M72.9,45.3L72.9,45.3c0.1,0,0.3,0,0.4,0v0c-0.1,0-0.1,0-0.2,0S73,45.3,72.9,45.3z"/>
<path class="st12" d="M72.4,45L72.4,45c0.2,0.1,0.3,0.1,0.5,0v0c-0.1,0-0.2,0-0.3,0C72.5,44.9,72.5,44.9,72.4,45z"/>
<path class="st12" d="M69.1,46.2c0.2,0.2,0.4,0.4,0.6,0.7l0,0c0.3,0.5,0.8,0.9,1.2,1.3c0.7,0.3,1.5,0.2,2.2-0.1
	c0.8-0.2,1.5-0.6,2.3-0.9c0.8-0.3,1.7-0.4,2.5-0.6v0c-0.5-0.1-1.1-0.1-1.6-0.2c-0.5,0-1.1,0-1.6,0.1c-0.5,0.1-1,0.2-1.5,0.4
	c-0.2,0.1-0.5,0.2-0.7,0.2l0,0c-0.2,0.1-0.4,0.1-0.7,0.2c0,0-0.1,0-0.1,0c-0.1,0-0.2-0.1-0.3-0.1c-0.1,0-0.2-0.1-0.3-0.1
	C70.5,46.9,69.8,46.5,69.1,46.2L69.1,46.2z"/>
<path class="st12" d="M76.6,46.8 M75.5,48.1L75.5,48.1L75.5,48.1z M75.5,48.1L75.5,48.1L75.5,48.1z M76.5,47.7L76.5,47.7L76.5,47.7z
	 M76.6,47.1L76.6,47.1L76.6,47.1z M76.6,47.1L76.6,47.1L76.6,47.1z M76.5,46.7C76.5,46.8,76.6,46.8,76.5,46.7L76.5,46.7L76.5,46.7
	c0.1,0.2,0.1,0.3,0.1,0.4c0,0.1,0,0.2,0,0.3c0,0.1,0,0.2-0.1,0.3c0,0.1-0.1,0.1-0.1,0.2c0,0-0.1,0.1-0.1,0.1c0,0-0.1,0.1-0.1,0.1
	c0,0-0.1,0-0.1,0c-0.1,0-0.2,0-0.4,0c0,0-0.1,0-0.1,0c0,0,0,0-0.1,0c0,0,0,0,0-0.1c0,0,0-0.1-0.1-0.1c0-0.1,0-0.1-0.1-0.2
	c0-0.2,0-0.5,0-0.7l0-0.1h0c-0.2,0.3-0.4,0.7-0.4,1.1c0,0.2,0.2,0.5,0.4,0.6c0.2,0.1,0.5,0.2,0.7,0.1c0.5-0.1,0.9-0.5,0.9-1
	C77.1,47.4,76.9,47,76.5,46.7L76.5,46.7z"/>
<path class="st12" d="M78.9,46.2c-0.4,0.2-0.6,0.5-0.8,0.9c-0.1,0.4,0,0.8,0.3,1.1l0,0h0c0-0.1,0-0.2-0.1-0.3l0,0v0
	c0-0.1,0-0.3,0-0.4c0-0.2,0.1-0.4,0.2-0.6C78.6,46.7,78.8,46.5,78.9,46.2L78.9,46.2z"/>
<path class="st12" d="M75.8,48.6L75.8,48.6L75.8,48.6c-0.5,0-0.9,0.1-1.4,0.2v0c0.5,0.1,0.9,0.1,1.4,0.1c0.5,0,1-0.1,1.5-0.1v0
	c-0.3-0.1-0.5-0.1-0.8-0.2h0c-0.2,0-0.4-0.1-0.6-0.1C75.9,48.6,75.8,48.6,75.8,48.6L75.8,48.6z"/>
<path class="st12" d="M67.9,48L67.9,48c0.3,0.1,0.6,0.1,0.9,0.1c0.3,0,0.6,0,0.9-0.1v0c-0.3-0.1-0.6-0.1-0.9-0.1h-0.1
	C68.5,47.9,68.2,47.9,67.9,48z"/>
<path class="st12" d="M70.4,49.1c-0.3,0.1-0.6,0.2-0.9,0.3c-0.3,0.1-0.6,0.3-0.9,0.5v0c0.3,0,0.7-0.1,1-0.2
	C69.9,49.5,70.2,49.3,70.4,49.1L70.4,49.1z"/>
<path class="st12" d="M75.9,46.5c-0.2,0-0.4,0.2-0.5,0.3c-0.2,0.3-0.1,1.1,0.2,1.2c0,0,0.1,0.1,0.2,0.1c0.2,0,0.3,0,0.5-0.1
	c0.2-0.1,0.3-0.3,0.4-0.4c0.1-0.1,0.1-0.3,0-0.4c0.1-0.3-0.1-0.6-0.4-0.7c-0.1,0-0.1,0-0.2,0C76.1,46.5,76,46.5,75.9,46.5L75.9,46.5
	z"/>
<path class="st12" d="M81.2,62L81.2,62L81.2,62z M81.2,62C81.2,62,81.2,62,81.2,62L81.2,62c0,0.4,0,0.6,0,0.9
	c-0.1,0.7-0.2,1.3-0.2,2c0.1,0.7,0.3,1.3,0.4,1.9h0c0,0.2,0,0.3,0,0.5c0,0.1,0,0.1-0.1,0.2c0,0,0,0.1-0.1,0.1c0,0-0.1,0.1-0.1,0.1v0
	c-0.1,0.1-0.2,0.1-0.3,0.2c-0.8,0.2-1.6,0.4-2.4,0.5c-0.5,0.1-1,0.2-1.4,0.4c-0.5,0.1-1,0.2-1.5,0.4v0c0.6,0.1,1.2,0.2,1.9,0.2
	c0.6,0.1,1.2,0.1,1.7,0.1c0.5,0.1,1.1,0.1,1.6,0.1c0.7,0,1.3-0.3,1.8-0.8l0,0h0c0.2-0.3,0.4-0.6,0.5-1c0.1-0.4,0.1-0.8,0-1.2
	c-0.2-0.7-0.5-1.3-0.9-1.9c-0.2-0.4-0.3-0.9-0.4-1.4C81.7,62.8,81.5,62.4,81.2,62L81.2,62L81.2,62z"/>
<path class="st12" d="M80.9,69.1c0.1,0.2,0.1,0.4,0.1,0.6l0,0h0c0,0.2,0,0.3,0,0.5c0,0.1,0,0.2-0.1,0.3c-0.1,0.1-0.1,0.2-0.2,0.3
	c-0.1,0.1-0.2,0.1-0.2,0.1C80.3,71,80.2,71,80.1,71c-0.3,0-0.7,0-1,0c-0.3,0-0.5-0.1-0.8-0.2c-0.3-0.1-0.5-0.1-0.8-0.2l0,0v0
	c-0.1-0.1-0.3-0.1-0.4-0.2l0,0c0.3,0.5,0.8,0.9,1.3,1.1c0.6,0.3,1.3,0.4,2,0.2c0.6-0.1,1.1-0.6,1.1-1.3C81.6,70,81.3,69.5,80.9,69.1
	L80.9,69.1z"/>
<path class="st12" d="M45.7,61.7c0.1,1.4,0.2,2.9,0.4,4.3l0,0c0,0.1,0,0.2,0,0.2c0,0.1,0,0.2,0.1,0.3c0,0.2,0.1,0.4,0.1,0.6
	c0.1,0.4,0.2,0.7,0.3,1.1v0c0.2,0.7,0.5,1.4,0.8,2.1l0,0c0-0.2-0.1-0.4-0.1-0.6l0,0c-0.1-0.6-0.1-1.3-0.2-1.9c0-0.3,0-0.6-0.1-1
	c0-0.2,0-0.3,0-0.5c0-0.1,0-0.1,0-0.2l0-0.1l0,0c0-0.1,0-0.1,0-0.2C46.9,64.4,46.5,63,45.7,61.7L45.7,61.7L45.7,61.7L45.7,61.7z"/>
<path class="st12" d="M43.5,61.1c-0.2,1.9-0.1,3.8,0.3,5.6c0,0.1,0,0.1,0,0.2c0,0.1,0,0.1,0,0.2c0,0.1,0.1,0.2,0.1,0.4
	c0.1,0.2,0.1,0.5,0.2,0.7c0.2,0.5,0.3,0.9,0.5,1.4v0c0.4,0.9,0.8,1.8,1.3,2.7l0,0c-0.3-0.9-0.5-1.9-0.6-2.8c-0.1-0.5-0.2-1-0.2-1.4
	c0-0.2-0.1-0.5-0.1-0.7c0-0.1,0-0.2-0.1-0.4c0-0.1,0-0.2-0.1-0.3C44.7,64.7,44.2,62.9,43.5,61.1L43.5,61.1L43.5,61.1z"/>
<path class="st12" d="M49.8,52.3c-0.3,1.5-0.4,3-0.2,4.4l0,0.1c0,0.1,0,0.2,0,0.2c0,0.1,0,0.2,0.1,0.3c0,0.2,0.1,0.4,0.1,0.6
	c0.1,0.4,0.2,0.7,0.3,1.1c0.2,0.8,0.4,1.5,0.6,2.2h0c0-0.8,0-1.5,0-2.3c0-0.4,0-0.8,0-1.1c0-0.2,0-0.4,0-0.6c0-0.1,0-0.2,0-0.3
	c0-0.1,0-0.1,0-0.2h0c0-0.1,0-0.1,0-0.2C50.4,55.1,50.2,53.7,49.8,52.3L49.8,52.3L49.8,52.3L49.8,52.3z"/>
<path class="st12" d="M50.6,52.4c0,0.8,0,1.6,0.2,2.5c0,0.2,0.1,0.4,0.2,0.6c0.1,0.2,0.1,0.4,0.2,0.6c0.2,0.4,0.3,0.8,0.5,1.3h0l0,0
	c0-0.9-0.1-1.7-0.2-2.6c0-0.1-0.1-0.2-0.1-0.3c0-0.1-0.1-0.2-0.1-0.3c-0.1-0.2-0.1-0.4-0.2-0.6l0,0C50.9,53.2,50.7,52.8,50.6,52.4
	L50.6,52.4L50.6,52.4L50.6,52.4z"/>
<path class="st12" d="M57.2,68L57.2,68L57.2,68z M55.1,65.2c0.2,0.7,0.4,1.5,0.6,2.2c0.2,0.8,0.5,1.5,0.9,2.3c0.4,0.7,0.7,1.3,1.1,2
	c0.3,0.6,0.6,1.3,1,1.9c0.2,0.4,0.3,0.7,0.6,1c0.2,0.3,0.5,0.7,0.7,1h0c0.4,0.5,0.8,1,1.4,1.4c0.6,0.4,1.2,0.8,1.8,1.1
	c0.6,0.2,1.2,0.4,1.9,0.4c0.5,0,1.1,0,1.6-0.1v0v0c-0.5-0.1-1-0.3-1.5-0.5c-0.5-0.2-1-0.5-1.5-0.9c-0.5-0.4-0.9-0.9-1.3-1.4
	c-0.7-1.1-1.4-2.2-1.9-3.3c-0.4-0.8-0.9-1.5-1.4-2.2c-0.3-0.4-0.6-0.8-0.9-1.1c-0.3-0.3-0.6-0.7-0.9-1
	C56.5,67.1,55.9,66.1,55.1,65.2L55.1,65.2L55.1,65.2z"/>
<path class="st12" d="M77.8,58.4L77.8,58.4L77.8,58.4z M75.6,63.7L75.6,63.7L75.6,63.7z M77.8,58.3c-1,0.9-1.7,2.1-1.9,3.5
	c0,0.1-0.1,0.3-0.1,0.4c0,0.2-0.1,0.4-0.1,0.6c0,0.3-0.1,0.7-0.1,1v0h0c-0.1,0.7-0.2,1.3-0.4,2h0l0,0c0.4-0.6,0.7-1.2,0.9-1.8
	c0.1-0.3,0.2-0.6,0.3-0.9c0.1-0.2,0.1-0.3,0.2-0.5h0c0.1-0.2,0.1-0.3,0.1-0.5c0.2-1.2,0.6-2.4,1-3.5v0
	C77.8,58.4,77.8,58.3,77.8,58.3L77.8,58.3L77.8,58.3z"/>
<path class="st12" d="M74.3,69.2c-0.3,0.1-0.6,0.4-0.9,0.7c-0.2,0.3-0.4,0.7-0.4,1.1l0,0c0.2-0.3,0.4-0.6,0.6-0.9
	C73.8,69.8,74,69.5,74.3,69.2L74.3,69.2C74.2,69.2,74.3,69.2,74.3,69.2L74.3,69.2L74.3,69.2z"/>
<path class="st12" d="M78.9,71.6 M79,72.5L79,72.5L79,72.5z M62,86.5c0,0-0.1,0.1-0.1,0.1C61.9,86.5,61.9,86.5,62,86.5z M78.6,71.8
	L78.6,71.8L78.6,71.8z M78.7,71.6L78.7,71.6L78.7,71.6z M78.5,71.7c-0.1,0.2-0.1,0.4,0,0.5c0.1,0.2,0.1,0.4,0.2,0.6
	c0.1,0.2,0.2,0.5,0.2,0.8c0.1,0.8,0,1.5-0.1,2.3c-0.1,0.6-0.2,1.1-0.5,1.7c-0.2,0.5-0.5,0.9-0.8,1.3c-0.4,0.5-0.9,1-1.5,1.4
	c-0.5,0.3-1,0.7-1.5,1c-0.6,0.3-1.1,0.6-1.7,0.9c-0.8,0.3-1.6,0.6-2.4,0.8c-0.9,0.2-1.7,0.4-2.6,0.7h0c-1.7,0.4-3.4,1.1-4.9,2.1
	c-0.3,0.2-0.7,0.5-1,0.7c-1.3,1-2.6,1.8-4.1,2.4c-0.5,0.2-1.1,0.4-1.7,0.6c-0.6,0.2-1.3,0.3-1.9,0.3v0c0.9,0.1,1.7,0.2,2.6,0.1
	c0.9-0.1,1.7-0.2,2.6-0.5c0.9-0.3,1.7-0.6,2.5-1c0.8-0.4,1.4-0.9,2.2-1.2c0.3-0.1,0.6-0.3,0.9-0.4h0c0.8-0.3,1.5-0.6,2.3-0.8
	c0.8-0.2,1.7-0.5,2.5-0.7c0.9-0.2,1.7-0.4,2.6-0.7h0c0.9-0.3,1.7-0.6,2.6-1.1c0.7-0.4,1.3-0.8,1.9-1.3c0.8-0.7,1.5-1.5,2.1-2.4
	c0.2-0.3,0.4-0.7,0.5-1c0.3-0.7,0.4-1.4,0.5-2.1c0-0.8,0-1.6-0.2-2.4c-0.1-0.4-0.2-0.9-0.4-1.2c-0.1-0.2-0.3-0.5-0.4-0.7l0,0h0
	c-0.1-0.2-0.2-0.3-0.3-0.5c0,0,0-0.1,0-0.1v-0.1c0,0,0,0,0,0c0,0,0,0,0,0c0,0,0,0,0,0c0,0,0,0,0.1,0c0.1,0,0.1,0,0.2-0.1l0,0v0
	c-0.1,0-0.1,0-0.2,0C78.7,71.5,78.5,71.6,78.5,71.7L78.5,71.7z"/>
<path class="st12" d="M54.6,89.1L54.6,89.1L54.6,89.1z M54.5,89.1L54.5,89.1L54.5,89.1z M54.1,88.3C54.1,88.3,54.1,88.3,54.1,88.3
	L54.1,88.3z M27.6,58.2c-0.1,0.8-0.1,1.5,0,2.3c0.1,0.7,0.2,1.5,0.5,2.1c0.4,0.8,0.9,1.5,1.5,2.2c0.6,0.7,1.3,1.3,2,1.8
	c0.6,0.5,1.2,0.9,1.8,1.3c0.6,0.4,1.1,0.8,1.7,1.3c1.1,0.8,2.2,1.7,3.4,2.5l0,0c1.5,1.1,2.9,2.3,4.2,3.6c1.4,1.3,2.7,2.8,3.9,4.2
	c1.4,1.6,2.8,3.3,4.1,5l0.1,0.1l0.1,0.1l0,0c0.4,0.5,0.8,1.1,1.2,1.7c0.3,0.6,0.6,1.1,0.9,1.7c0.3,0.6,0.7,1.1,1.2,1.5
	c0.2,0.2,0.5,0.3,0.7,0.4c0.4,0.1,0.7,0.1,1.1-0.1c0.1,0,0.1,0,0.2,0v0c-0.2,0-0.4,0-0.6-0.1c-0.1,0-0.2,0-0.3-0.1
	c-0.1,0-0.2-0.1-0.3-0.2c-0.1-0.1-0.2-0.2-0.3-0.3c-0.2-0.2-0.3-0.5-0.4-0.8c-0.2-0.6-0.4-1.2-0.6-1.8c-0.1-0.3-0.2-0.6-0.2-0.9
	c-0.1-0.3-0.2-0.7-0.4-1c-0.8-1.8-1.8-3.5-2.9-5.1c-1.2-1.7-2.5-3.3-3.9-4.8c-1.3-1.4-2.7-2.7-4.2-3.9c-1.5-1.3-3.2-2.5-4.8-3.7
	c-0.8-0.5-1.6-1-2.4-1.5c-0.8-0.4-1.6-0.8-2.4-1.3h0c-0.7-0.4-1.3-0.8-1.9-1.2c-0.5-0.4-1-0.8-1.4-1.3c-0.3-0.4-0.5-0.8-0.7-1.2
	C28,59.8,27.8,59,27.6,58.2L27.6,58.2L27.6,58.2L27.6,58.2z"/>
<path class="st12" d="M40.4,64.9L40.4,64.9L40.4,64.9z M40.1,64.1c-0.1,3.1,0.9,6.1,2.8,8.6c0.1,0.1,0.2,0.3,0.3,0.4l0,0
	c0.1,0.2,0.3,0.4,0.4,0.6c0.1,0.2,0.3,0.3,0.4,0.5c0.2,0.3,0.5,0.6,0.8,0.9c0.5,0.6,1.1,1.1,1.6,1.7c1,1.1,2.1,2.1,3.1,3.3
	c0.1,0.1,0.2,0.2,0.3,0.3l0,0h0c-0.6-1.4-1.4-2.7-2.2-4c-0.8-1.3-1.6-2.6-2.5-3.9c0-0.1-0.1-0.1-0.1-0.2c0,0,0-0.1-0.1-0.1l0,0
	c0-0.1-0.1-0.1-0.1-0.2c-1.7-2.2-3.2-4.6-4.4-7.2l0,0C40.3,64.7,40.2,64.4,40.1,64.1L40.1,64.1L40.1,64.1L40.1,64.1z"/>
<path class="st12" d="M39.4,85.3l0.2,0.1C39.5,85.3,39.5,85.3,39.4,85.3z M27.5,59c-0.1,0.7-0.2,1.3-0.3,2l0-0.1
	c-0.1,0.8-0.3,1.7-0.6,2.5c-0.2,0.4-0.4,0.8-0.6,1.1c-0.8,0.8-1.4,1.7-1.8,2.7C24,68,24,68.8,24.2,69.5c0.2,0.8,0.5,1.6,1,2.3
	c0.5,0.8,1,1.6,1.6,2.3c1,1.2,2.1,2.4,3.3,3.5c1.2,1.2,2.5,2.3,3.8,3.4c1.8,1.4,3.6,2.8,5.4,4.2c2.6,1.9,4.9,4.1,6.9,6.5
	c2,2.7,3.2,5.9,5.5,8.4c0.3,0.3,0.6,0.4,1,0.3c0.4-0.1,0.7-0.3,0.9-0.6c0.6-1.1,1.2-2.2,1.6-3.3c0.4-1.1,0.7-2.3,0.8-3.5
	c0.1-1.2,0-2.5-0.3-3.7c-0.3-1.1-0.7-2.1-1.3-3.1c-1.5-2.5-3.8-4.3-5.6-6.5l0,0c1.1,2.5,2.8,4.8,3.9,7.4c0.4,1,0.7,2,0.9,3.1
	c0.1,1,0.1,2.1,0,3.1c-0.2,1-0.4,2-0.8,3c-0.1,0.2-0.2,0.5-0.3,0.7c-1-1.5-1.8-3.1-2.7-4.7v0c-0.6-1-1.3-2-2-2.9
	c-0.7-0.9-1.5-1.7-2.3-2.5c-2.4-2.2-4.8-4.2-7.4-6.1c-1.7-1.3-3.3-2.7-4.9-4.1c-1-1-2-1.9-2.9-2.9c-0.7-0.8-1.4-1.6-2.1-2.4v0
	c-0.6-0.8-1.2-1.6-1.6-2.5c-0.1-0.3-0.2-0.6-0.3-0.9c0-0.1,0-0.3,0-0.5c0-0.2,0.1-0.3,0.1-0.5c0.3-0.6,0.6-1.1,0.9-1.6v0
	c0.4-0.7,0.6-1.5,0.6-2.3C28,61.8,27.8,60.4,27.5,59L27.5,59L27.5,59L27.5,59z"/>
<path class="st12" d="M56.9,89.6c-0.1,1.5-0.3,3.1-0.2,4.6v0c0,0.8,0.1,1.7,0.3,2.5c0,0.2,0.1,0.4,0.2,0.6c-0.2-0.1-0.5-0.3-0.7-0.5
	c-0.6-0.5-1.1-1-1.5-1.6l0,0c-0.2-0.3-0.4-0.6-0.6-0.9l0,0c0.2,1,0.5,2,1.1,2.9c0.6,1,1.6,1.8,2.7,2.1c0.3,0.1,0.6,0,0.8-0.2
	c0.2-0.2,0.4-0.4,0.4-0.7c0-0.8-0.2-1.6-0.4-2.3c-0.2-0.8-0.4-1.5-0.6-2.3C57.8,92.5,57.4,91,56.9,89.6L56.9,89.6L56.9,89.6z"/>
<path class="st12" d="M28.4,57.6L28.4,57.6L28.4,57.6z M28.4,57.5L28.4,57.5L28.4,57.5z M29,53.2c-0.5,0.8-1,1.7-1.4,2.5
	c-0.5,0.9-0.7,2-0.8,3c0,0.2,0,0.5,0,0.7c0,0.3,0,0.5,0,0.8c0,0.5,0,1,0,1.5c0,1-0.1,2-0.2,3h0c0.4-0.9,0.8-1.8,1.1-2.8
	c0.1-0.5,0.3-0.9,0.4-1.4c0.1-0.3,0.1-0.6,0.1-0.9h0c0-0.3,0.1-0.5,0-0.8c0-0.4,0.1-0.9,0.1-1.3C28.6,56.1,28.9,54.7,29,53.2
	L29,53.2L29,53.2L29,53.2z"/>
<path class="st12" d="M50.1,40.9c-0.1,0.2-0.2,0.4-0.4,0.6c-0.2,0.3-0.5,0.5-0.7,0.7c-0.3,0.2-0.7,0.4-1,0.6
	c-0.4,0.2-0.9,0.3-1.4,0.4c-0.5,0.1-0.9,0.1-1.4,0h0v0c-0.1,0-0.2,0-0.3,0l-0.1,0c-0.4-0.1-0.9-0.2-1.3-0.4
	c-0.5-0.2-1.1-0.2-1.7-0.2c-1.1,0.1-2.1,0.2-3.2,0.4v0c0.6,0.1,1.3,0.2,1.9,0.3v0c0.6,0.1,1.2,0.3,1.8,0.5c0.4,0.2,0.7,0.4,1.1,0.6
	c0.5,0.3,1,0.4,1.5,0.4l0,0C47.4,45,50,43.4,50.1,40.9L50.1,40.9L50.1,40.9L50.1,40.9z"/>
<path class="st12" d="M48.4,44.5L48.4,44.5L48.4,44.5z M49.4,43c-0.8,0.2-1.4,0.9-1.7,1.6c-0.1,0.2-0.1,0.4-0.1,0.6
	c0,0.2,0,0.4-0.1,0.6c0,0.4,0,0.8,0.1,1.2h0c0.2-0.9,0.4-1.8,0.8-2.6c0.2-0.4,0.4-0.7,0.6-1C49.1,43.3,49.2,43.2,49.4,43L49.4,43z"
	/>
<path class="st12" d="M48.3,43.3c-0.5,0.5-0.9,1-1.4,1.5v0c-0.4,0.5-0.9,1-1.5,1.4c-0.1,0.1-0.2,0.1-0.3,0.2v0
	c0.4-0.1,0.8-0.2,1.2-0.4c0.2-0.1,0.3-0.2,0.5-0.3c0.2-0.1,0.3-0.2,0.4-0.4l0,0C47.8,44.8,48.2,44.1,48.3,43.3L48.3,43.3L48.3,43.3z
	"/>
<path class="st12" d="M45.7,50.8L45.7,50.8L45.7,50.8z M45.6,50c0,0.1,0.1,0.2,0.1,0.3c0,0.1,0,0.3,0,0.4c-0.1,0.4-0.2,0.9-0.4,1.3
	c-0.2,0.4-0.3,0.8-0.5,1.2l0,0l0,0c0.5-0.4,0.9-0.9,1.1-1.4l0,0C46.2,51.2,46.1,50.5,45.6,50L45.6,50L45.6,50z"/>
<path class="st12" d="M34.2,63.2L34.2,63.2L34.2,63.2z M36,54.4L36,54.4L36,54.4z M36.6,52.9L36.6,52.9L36.6,52.9z M36.6,51.6
	c0,0.4,0,0.9,0,1.3c0,0.2-0.1,0.5-0.2,0.7c-0.1,0.3-0.3,0.5-0.4,0.7c-0.7,0.9-1.6,1.8-2.3,2.8c-0.1,0.1-0.2,0.3-0.3,0.5
	c-0.1,0.1-0.1,0.3-0.2,0.4c-0.1,0.3-0.3,0.7-0.4,1c-0.1,0.6-0.2,1.2-0.1,1.9c0.2,1.2,0.8,2.2,1.7,3l0,0c-0.1-0.2-0.2-0.5-0.4-0.7h0
	c-0.2-0.5-0.3-0.9-0.4-1.4c0-0.3,0-0.7,0-1c0.1-0.4,0.2-0.7,0.3-1.1c0.1-0.3,0.2-0.5,0.4-0.8c0.1-0.2,0.2-0.3,0.3-0.5
	c0.1-0.1,0.2-0.3,0.3-0.4c0.8-1,1.4-2.1,2-3.3c0.2-0.5,0.3-1.1,0.2-1.7C37.1,52.6,36.9,52.1,36.6,51.6L36.6,51.6L36.6,51.6
	L36.6,51.6z"/>
<path class="st12" d="M18.5,49.2L18.5,49.2L18.5,49.2L18.5,49.2L18.5,49.2z M72,23L72,23L72,23z M72,22.9L72,22.9L72,22.9z
	 M48.3,17.3c-3.1,0.6-6.1,1.6-8.9,3.1c-2.8,1.5-5.4,3.4-7.7,5.6c-1.2,1.1-2.3,2.3-3.3,3.6c-1.1,1.4-2.2,2.9-3.2,4.4
	c-1.6,2.4-3,5-4.1,7.7c-0.9,2.4-1.6,5-2.6,7.4l0,0l0,0.1l0,0.1l0,0h0c-0.4,0.9-0.9,1.9-1.4,2.7l0,0c2.4-2.1,4-5,5.5-7.8
	c0.4-0.7,0.8-1.4,1.1-2.1c0.4-0.7,0.8-1.5,1.2-2.2c0.9-1.5,1.7-3,2.7-4.5c0.7-1,1.4-2,2.1-3c1.9-2.5,4.1-4.7,6.5-6.6
	c2.1-1.6,4.4-3,6.8-4c2.4-1,4.8-1.6,7.4-2c3.1-0.4,6.2-0.4,9.3-0.1c4.2,0.6,8.2,1.7,12.1,3.3c1.1,0.5,2.2,1,3.3,1.5l0,0
	c-2.4-2.1-5-3.9-7.9-5.2c-1.4-0.7-2.9-1.2-4.4-1.6c-1.6-0.4-3.2-0.6-4.8-0.8c-1-0.1-2-0.1-3-0.1C52.9,16.7,50.6,16.9,48.3,17.3
	L48.3,17.3z"/>
<path class="st12" d="M95.3,36.5L95.3,36.5c0.4,0.2,0.7,0.3,1.1,0.3c0.4,0,0.8,0,1.2-0.1v0c-0.4-0.1-0.8-0.2-1.1-0.2
	c-0.2,0-0.4,0-0.5,0C95.7,36.4,95.5,36.5,95.3,36.5L95.3,36.5z"/>
<path class="st12" d="M98.2,34.9c-0.2,0.1-0.5,0.3-0.7,0.4c-0.2,0.2-0.4,0.3-0.6,0.5l0,0v0C97.4,35.7,97.9,35.4,98.2,34.9L98.2,34.9
	L98.2,34.9z"/>
<path class="st12" d="M82,45.2L82,45.2L82,45.2z M82.6,44.7L82.6,44.7L82.6,44.7z M83,43.9L83,43.9C83,43.9,83,43.9,83,43.9z
	 M83.7,41c-0.1,0.4-0.1,0.8-0.2,1.2c0,0.2-0.1,0.4-0.2,0.6c-0.1,0.2-0.1,0.4-0.2,0.6v0c-0.1,0.2-0.1,0.4-0.2,0.5l0,0
	c-0.1,0.3-0.3,0.5-0.4,0.8c-0.2,0.2-0.3,0.4-0.5,0.5h0c0,0-0.1,0-0.1,0.1v0h0c0.9-0.2,1.6-0.8,1.8-1.7c0.1-0.2,0.1-0.4,0.1-0.6
	c0-0.2,0-0.4,0-0.7C83.9,41.8,83.8,41.4,83.7,41L83.7,41L83.7,41z"/>
<path class="st12" d="M81.8,41.3c0,0.1,0.1,0.2,0.1,0.4c0,0.2,0.1,0.5,0.1,0.8h0v0C82.1,42,82.1,41.6,81.8,41.3L81.8,41.3z"/>
<path class="st12" d="M83,41.3c0.1,0.3,0.1,0.6,0.2,0.9c0,0.1,0,0.2,0,0.3l0,0c0,0.1,0,0.3,0,0.4v0c0,0.1,0,0.1,0,0.2l0,0h0
	c0.2-0.3,0.3-0.6,0.3-1l0,0C83.4,41.8,83.2,41.5,83,41.3L83,41.3L83,41.3L83,41.3z"/>
<path class="st12" d="M75.5,51.3L75.5,51.3L75.5,51.3z M77.6,50.7l-0.1,0.1h0l0,0c-0.6,0.3-1.3,0.4-1.9,0.5
	c-0.6,0.1-1.3,0.1-1.9,0.1v0v0c0.6,0.3,1.3,0.5,2.1,0.4c0.2,0,0.4-0.1,0.5-0.1c0.2-0.1,0.3-0.2,0.5-0.2C77,51.2,77.3,50.9,77.6,50.7
	L77.6,50.7z"/>
<path class="st12" d="M73,49.9L73,49.9L73,49.9z M72.2,49.4c0.3,0.5,0.7,0.9,1.3,1.1c0.6,0.1,1.2,0.1,1.8,0v0
	c-0.4-0.1-0.8-0.2-1.2-0.3c-0.4-0.1-0.8-0.2-1.1-0.4C72.7,49.7,72.5,49.6,72.2,49.4L72.2,49.4z"/>
<path class="st12" d="M53.9,50.4L53.9,50.4L53.9,50.4L53.9,50.4L53.9,50.4z M56.1,46.3c-0.9,0.5-1.7,1.1-2.3,1.9
	c-0.5,1-0.5,2.2,0,3.2h0c0,0,0-0.1,0-0.1v0v0c0-0.3,0-0.6,0-1l0,0l0,0l0,0l0,0c0.1-0.3,0.1-0.6,0.3-0.9c0.1-0.1,0.1-0.2,0.2-0.4
	c0.1-0.1,0.2-0.3,0.2-0.4h0c0.2-0.4,0.5-0.7,0.7-1.1l-0.1,0.1v0C55.6,47.3,55.9,46.8,56.1,46.3L56.1,46.3z"/>
<path class="st12" d="M55.4,72.7c0.1,0.4,0.2,0.8,0.2,1.2h0c0.1,0.9,0.2,1.8,0.2,2.7c0,0.2,0,0.3,0,0.5c0,0.2,0,0.3,0,0.5
	c0,0.3,0,0.7,0,1c0,0.7,0.1,1.4,0.1,2.1h0c0.2-0.7,0.4-1.3,0.5-2c0.1-0.3,0.1-0.7,0.2-1c0-0.2,0.1-0.4,0.1-0.6c0-0.2,0-0.4,0-0.6
	C56.7,75.2,56.2,73.8,55.4,72.7L55.4,72.7L55.4,72.7z"/>
<path class="st12" d="M68.2,79.1L68.2,79.1C68.2,79.1,68.3,79.2,68.2,79.1L68.2,79.1c0.4,0.2,0.8,0.4,1.1,0.5l0,0
	c0.4,0.1,0.7,0.3,1.1,0.4l0,0v0c-0.3-0.3-0.6-0.5-1-0.7c-0.3-0.1-0.6-0.2-1-0.2C68.4,79.1,68.3,79.1,68.2,79.1L68.2,79.1z"/>
<path class="st12" d="M49.2,62c0,0.6,0.2,1.3,0.3,1.9c0.2,0.6,0.4,1.3,0.7,1.9c0,0,0,0.1,0,0.1h0v0c0-0.7-0.1-1.3-0.2-2
	c-0.1-0.3-0.2-0.6-0.4-1C49.6,62.6,49.4,62.3,49.2,62L49.2,62L49.2,62L49.2,62z"/>
<path class="st12" d="M44.7,61.8c0,0.5,0.1,1.1,0.2,1.6c0.1,0.5,0.3,1,0.6,1.5h0c0-0.3,0-0.5,0-0.8c0-0.3,0-0.6-0.1-0.9
	c-0.1-0.3-0.1-0.5-0.2-0.8h0C45,62.3,44.9,62.1,44.7,61.8L44.7,61.8L44.7,61.8L44.7,61.8z"/>
<path class="st12" d="M22,56.9c-0.3,1-0.6,2.1-0.8,3.2c-0.2,1.1-0.3,2.3-0.2,3.5l0-0.1l0,0.1c0,0.1,0,0.2,0,0.3c0,0.1,0,0.1,0,0.2
	c0,0.1,0.1,0.3,0.1,0.4h0c0.1,0.3,0.1,0.5,0.2,0.8c0.2,0.6,0.4,1.1,0.8,1.6c0.7,1,1.6,1.8,2.7,2.3l0,0h0c-0.2-0.2-0.5-0.5-0.7-0.8
	c-0.4-0.5-0.7-1-0.9-1.5c-0.3-0.7-0.5-1.5-0.6-2.3c0-0.2,0-0.4-0.1-0.5c0-0.1,0-0.2,0-0.3v0c0-0.1,0-0.3,0-0.4
	C22.4,61.2,22.4,59,22,56.9L22,56.9L22,56.9L22,56.9z"/>
<path class="st12" d="M22.1,57.4c0.2,1.8,0.5,3.6,0.8,5.4c0,0.2,0.1,0.5,0.1,0.7c0,0.2,0.1,0.4,0.1,0.7c0.1,0.5,0.2,0.9,0.3,1.4
	c0.2,0.9,0.4,1.8,0.7,2.7h0c0.1-1,0.2-1.9,0.2-2.9l0,0c0.1-1,0-2-0.1-3C23.9,60.7,23.1,59,22.1,57.4L22.1,57.4L22.1,57.4L22.1,57.4z
	"/>
<path class="st12" d="M23.2,59.1c0.4,1.3,0.8,2.6,1,4c0.1,0.4,0.1,0.7,0.2,1.1c0.1,0.4,0.1,0.7,0.2,1.1c0.1,0.7,0.2,1.4,0.3,2.1h0
	c0.4-1.4,0.5-2.9,0.3-4.4c-0.1-0.8-0.4-1.5-0.8-2.1C24.2,60.1,23.7,59.6,23.2,59.1L23.2,59.1L23.2,59.1L23.2,59.1z"/>
</svg>
